<svg xmlns="http://www.w3.org/2000/svg" viewBox="0 0 120.323 210.178" width="120.323" height="210.178">
<path d="M8 60.309 L8 91.253 C8 135.569 41.447 124.703 41.447 145.232 L41.447 202.178 L76.375 202.178 L76.375 148.701 C76.375 123.983 112.323 136.969 112.323 91.034 L112.323 60.236 A7.054 7.054 0 0 0 105.27 53.183 L97.258 53.183 A2.869 2.869 0 0 1 94.389 50.314 L94.389 17.248 A9.248 9.248 0 0 0 75.893 17.248 L75.893 51.479 A1.703 1.703 0 0 1 74.19 53.183 L48.068 53.183 A2.583 2.583 0 0 1 45.486 50.6 L45.486 17.675 A9.559 9.559 0 0 0 26.368 17.675 L26.368 51.629 A1.553 1.553 0 0 1 24.815 53.183 L15.127 53.183 A7.127 7.127 0 0 0 8 60.309 Z" fill="#000000"/>
</svg>
